<?xml version="1.0" encoding="utf-8"?><svg version="1.1" xmlns="http://www.w3.org/2000/svg" viewBox="0 0 100 100"><defs><path id="f" d="M-8.5,-2h17a2,2 1,1,1 0,4 h-17a2,2 1,1,1 0,-4z" stroke="#000" fill="#fff" /></defs><g stroke-linejoin="round" stroke="#000" fill="#fff"><path transform="translate(100 35) scale(-1)" d="M20.5,10.25a12,4 0,0,1 0,4.1h1a12,4 0,0,1 0,4.1h-1a12,4 0,0,1 0,4.1h-1.34a12,4 0,0,1 0,4.1" /><path transform="translate(0 35) scale(1,-1)" d="M20.5,10.25a12,4 0,0,1 0,4.1h1a12,4 0,0,1 0,4.1h-1a12,4 0,0,1 0,4.1h-1.34a12,4 0,0,1 0,4.1" /><path transform="translate(100 65) scale(-1,1)" d="M20.5,10.25a12,4 0,0,1 0,4.1h1a12,4 0,0,1 0,4.1h-1a12,4 0,0,1 0,4.1h-1.34a12,4 0,0,1 0,4.1" /><path transform="translate(0 65)" d="M20.5,10.25a12,4 0,0,1 0,4.1h1a12,4 0,0,1 0,4.1h-1a12,4 0,0,1 0,4.1h-1.34a12,4 0,0,1 0,4.1" /></g><use href="#f" x="25.5" y="22.5" /><use href="#f" x="28.5" y="18.5" /><use href="#f" x="27" y="14.5" /><use href="#f" x="25.5" y="77.5" /><use href="#f" x="74.5" y="77.5" /><use href="#f" x="71.5" y="81.5" /><use href="#f" x="73" y="85.5" /><use href="#f" x="75.5" y="89.5" /><use href="#f" x="74.5" y="22.5" /><g transform="translate(100 35) scale(-1)"><path d="M19.16,26.6l-8.66,-0.1l-2,-2h-2v-14h1.8c0,-2 3,-3.9 9,-3 c0,-0.5 3.5,2.9 3.5,2.9" stroke-linecap="round" stroke-linejoin="round" stroke="#000" fill="#fff" /><rect x="0.5" y="9.5" rx="1" ry="1" width="6" height="16" stroke-width="1" stroke="#000" fill="#FF0000" /></g><g transform="translate(0 35) scale(1,-1)"><path d="M19.16,26.6l-8.66,-0.1l-2,-2h-2v-14h1.8c0,-2 3,-3.9 9,-3 c0,-0.5 3.5,2.9 3.5,2.9" stroke-linecap="round" stroke-linejoin="round" stroke="#000" fill="#fff" /><rect x="0.5" y="9.5" rx="1" ry="1" width="6" height="16" stroke-width="1" stroke="#000" fill="#0000FF" /></g><g transform="translate(100 65) scale(-1,1)"><path d="M19.16,26.6l-8.66,-0.1l-2,-2h-2v-14h1.8c0,-2 3,-3.9 9,-3 c0,-0.5 3.5,2.9 3.5,2.9" stroke-linecap="round" stroke-linejoin="round" stroke="#000" fill="#fff" /><rect x="0.5" y="9.5" rx="1" ry="1" width="6" height="16" stroke-width="1" stroke="#000" fill="#FF0000" /></g><g transform="translate(0 65)"><path d="M19.16,26.6l-8.66,-0.1l-2,-2h-2v-14h1.8c0,-2 3,-3.9 9,-3 c0,-0.5 3.5,2.9 3.5,2.9" stroke-linecap="round" stroke-linejoin="round" stroke="#000" fill="#fff" /><rect x="0.5" y="9.5" rx="1" ry="1" width="6" height="16" stroke-width="1" stroke="#000" fill="#0000FF" /></g></svg>