<?xml version="1.0" encoding="UTF-8"?>
<svg version="1.1" xmlns="http://www.w3.org/2000/svg" width="512" height="512">
<path d="M0 0 C1.95145938 0.02804741 3.90302585 0.049366 5.85462952 0.0643158 C10.9423524 0.12105187 16.02344421 0.2678619 21.10858154 0.43487549 C26.31691789 0.58953003 31.52634779 0.65708144 36.73632812 0.73242188 C46.92215318 0.8923319 57.1030993 1.14762704 67.28515625 1.46484375 C67.61155283 10.74023746 67.85926845 20.01361617 68.01052666 29.2935276 C68.08318087 33.60434321 68.18143992 37.91119372 68.34130859 42.21972656 C68.49502771 46.38929551 68.57744447 50.55508964 68.61343765 54.72727585 C68.63903268 56.30722865 68.68901985 57.88700645 68.76537704 59.46532059 C69.34426347 71.94343022 69.34426347 71.94343022 65.8680706 76.20009041 C64.06083428 77.90652769 62.20123661 79.51459126 60.29223633 81.10620117 C54.90761945 85.6958419 52.43561503 89.11174651 51.75898266 96.26064014 C51.56939224 101.36449672 51.65713103 106.43534598 51.8046875 111.5390625 C51.8160068 113.75712246 51.8206621 115.97522537 51.8190155 118.1933136 C51.83039394 123.99893015 51.92254619 129.80030885 52.03515625 135.60473633 C52.17924656 143.78355026 52.21387086 151.96366064 52.25846863 160.14350891 C52.28227271 164.48952855 52.33741785 168.8333237 52.41841125 173.17863464 C52.78961405 197.80191776 52.78961405 197.80191776 45.59765625 205.40234375 C39.28424124 211.74988533 34.44104025 213.8332434 25.41015625 214.02734375 C17.42655197 213.94815229 11.47945525 212.14938786 5.453125 206.85546875 C-0.80409125 200.21764324 -1.86215173 193.40808841 -2.2890625 184.67578125 C-2.33140015 183.88582764 -2.37373779 183.09587402 -2.4173584 182.28198242 C-2.5206747 180.34315312 -2.6183241 178.40402329 -2.71484375 176.46484375 C-3.60718719 177.37051086 -4.49953064 178.27617798 -5.41891479 179.20928955 C-13.84698835 187.75920659 -22.29102255 196.29307379 -30.75077629 204.81164932 C-35.09910361 209.19123459 -39.44169541 213.57620125 -43.77148438 217.97412109 C-47.95334735 222.22136921 -52.14987012 226.45361777 -56.35678482 230.67604828 C-57.95595769 232.28627274 -59.54985698 233.90175304 -61.13824081 235.52262115 C-63.37105683 237.79925007 -65.62222019 240.0561432 -67.87841797 242.30957031 C-68.52506912 242.97779312 -69.17172028 243.64601593 -69.83796692 244.33448792 C-75.26313076 249.6883968 -81.21632088 252.67644283 -88.74609375 253.99609375 C-97.36237993 253.88702684 -105.46429372 251.71539378 -111.71484375 245.46484375 C-115.71484375 240.05943834 -115.71484375 240.05943834 -115.71484375 237.46484375 C-116.35550781 238.00753906 -116.99617188 238.55023438 -117.65625 239.109375 C-125.84962675 245.88631106 -131.68470938 249.10615479 -142.49609375 248.80859375 C-149.84246737 248.02402958 -155.26907307 244.86901887 -160.20703125 239.42578125 C-166.16263132 231.68041536 -166.44140824 224.02929106 -165.71484375 214.46484375 C-165.1953125 212.046875 -165.1953125 212.046875 -164.71484375 210.46484375 C-165.47667969 210.04525391 -165.47667969 210.04525391 -166.25390625 209.6171875 C-173.246051 205.54498335 -178.6783288 200.63704731 -181.24609375 192.765625 C-182.76684515 185.30127023 -182.70931403 177.13147691 -178.71484375 170.46484375 C-176.52823863 167.6465527 -174.19861593 165.02346934 -171.71484375 162.46484375 C-172.2459375 162.08972656 -172.77703125 161.71460938 -173.32421875 161.328125 C-180.42993443 156.18037113 -185.42757509 150.92228984 -187.19140625 142.07421875 C-188.33197115 133.42714532 -186.75768832 126.65054874 -181.71484375 119.46484375 C-178.31366302 115.65245982 -174.68219315 112.08216184 -171.04296875 108.5 C-169.99427761 107.45691264 -168.94625317 106.4131546 -167.89886475 105.36875916 C-165.15676876 102.63805032 -162.40578122 99.91647655 -159.652771 97.19677734 C-156.8385529 94.41339303 -154.03293783 91.62136588 -151.2265625 88.83007812 C-145.73098724 83.36655869 -140.22597916 77.91267183 -134.71484375 72.46484375 C-133.06484375 73.78484375 -131.41484375 75.10484375 -129.71484375 76.46484375 C-126.50440493 75.08295922 -124.6654801 73.54062472 -122.46484375 70.83984375 C-121.9440625 70.20820312 -121.42328125 69.5765625 -120.88671875 68.92578125 C-120.5 68.44367188 -120.11328125 67.9615625 -119.71484375 67.46484375 C-121.03484375 66.14484375 -122.35484375 64.82484375 -123.71484375 63.46484375 C-119.33002683 53.83503093 -110.49948629 45.9449172 -103.33984375 38.27734375 C-102.87923428 37.78270504 -102.4186248 37.28806633 -101.94405746 36.77843857 C-91.16921371 25.29916322 -81.26778933 15.52020179 -64.69641113 14.88175964 C-59.1237465 14.90739807 -53.69171891 15.48220749 -48.19827271 16.39692688 C-46.77754959 16.5330262 -46.77754959 16.5330262 -45.328125 16.671875 C-44.59333483 16.75643574 -43.85854465 16.84099648 -43.10148811 16.92811966 C-38.16239792 17.2214571 -38.16239792 17.2214571 -33.8694973 15.06250858 C-32.13271033 13.11349205 -30.52176892 11.09576535 -28.90869141 9.04345703 C-20.26278705 -0.62724148 -12.35879016 -0.52857393 0 0 Z " fill="#FDD8A9" transform="translate(444.71484375,-1.46484375)"/>
<path d="M0 0 C8.27905666 4.61029822 11.81816174 10.62106561 14.625 19.5 C15.87112252 24.54636383 16.92590537 29.62984481 17.98046875 34.71875 C18.28951694 36.18716776 18.59912177 37.65546846 18.90925598 39.12365723 C19.71866856 42.96276102 20.5205753 46.80339414 21.32086182 50.64440918 C22.14096927 54.573798 22.96825856 58.50167368 23.79492188 62.4296875 C25.41193032 70.11833917 27.0210024 77.80862354 28.625 85.5 C28.75170578 84.90770096 28.87841156 84.31540192 29.00895691 83.70515442 C30.35310293 77.42415332 31.70067123 71.14389287 33.05004883 64.86401367 C33.55023927 62.53411604 34.04961603 60.20404355 34.5480957 57.8737793 C37.06288943 46.12034759 39.59994173 34.37189633 42.3203125 22.6640625 C42.6105555 21.38514885 42.6105555 21.38514885 42.90666199 20.08039856 C44.99732414 11.2293375 48.00041671 5.89390683 55.8125 1 C62.90025195 -2.91949417 70.23278209 -3.94952094 78.16796875 -1.81640625 C85.94330977 1.40882126 91.40816237 5.97418835 94.8984375 13.66796875 C99.30310741 24.7743676 95.36325103 36.89440563 92.90625 48.07421875 C92.5241239 49.85190612 92.14299604 51.62980834 91.76281738 53.40791321 C90.76661495 58.05421828 89.75700652 62.69750743 88.7444458 67.340271 C87.71073892 72.09161521 86.68992023 76.84572556 85.66796875 81.59960938 C83.66615156 90.9024699 81.6501411 100.2021911 79.625 109.5 C80.88739502 109.48864014 82.14979004 109.47728027 83.45043945 109.46557617 C86.79945554 109.43543952 89.59777968 109.78987282 92.8125 110.8125 C93.65554688 111.080625 94.49859375 111.34875 95.3671875 111.625 C97.625 112.5 97.625 112.5 100.4375 114.3125 C102.58354259 115.80085243 102.58354259 115.80085243 105 114.875 C105.86625 114.42125 106.7325 113.9675 107.625 113.5 C115.07467095 109.84820052 122.64263507 108.3005393 130.75390625 110.78125 C138.46803499 113.74450614 143.41230298 118.19527051 147.18074036 125.52664185 C149.06821734 130.03328879 149.08271002 134.31653092 149.0925293 139.14794922 C149.10581772 140.09036469 149.11910614 141.03278015 149.13279724 142.00375366 C149.17133618 145.10415169 149.1870645 148.20408038 149.19921875 151.3046875 C149.21394888 153.4703074 149.2288285 155.63592629 149.24385071 157.80154419 C149.27080097 162.33566259 149.28438086 166.86961755 149.29077148 171.40380859 C149.30164514 177.20017679 149.36338397 182.99480596 149.4374876 188.79066277 C149.48596289 193.26211334 149.4983017 197.73314694 149.50083351 202.2048378 C149.5080441 204.34104067 149.52844065 206.47724295 149.56253624 208.61318588 C149.83946945 227.39386057 149.83946945 227.39386057 144.74902344 233.15722656 C143.39970195 234.3020549 142.02686521 235.42015078 140.625 236.5 C139.63415123 237.65676517 138.66983519 238.83774003 137.75390625 240.0546875 C137.32899902 240.6005249 136.9040918 241.1463623 136.46630859 241.70874023 C135.57604244 242.86873765 134.68714727 244.02978801 133.79931641 245.19165039 C131.61163272 248.03458051 129.42902131 250.70688234 126.95703125 253.31640625 C119.20969253 261.58105534 120.49423658 263.46145129 119.625 276.5 C82.005 276.5 44.385 276.5 5.625 276.5 C5.295 271.88 4.965 267.26 4.625 262.5 C2.62122657 258.74204268 2.62122657 258.74204268 -0.44140625 256.12890625 C-0.95372299 255.63261215 -1.46603973 255.13631805 -1.99388123 254.62498474 C-3.61346939 253.07052463 -5.27226901 251.56779493 -6.9375 250.0625 C-8.02441963 249.03238518 -9.10842955 247.99919119 -10.18945312 246.96289062 C-15.22250107 242.17186128 -20.38881658 237.52986532 -25.67163086 233.01538086 C-26.23374268 232.51530518 -26.79585449 232.01522949 -27.375 231.5 C-28.46035034 230.61115112 -28.46035034 230.61115112 -29.56762695 229.7043457 C-31.98666575 226.75398757 -31.83692102 224.98181405 -31.765625 221.203125 C-31.75273437 219.99785156 -31.73984375 218.79257812 -31.7265625 217.55078125 C-31.69304687 216.29652344 -31.65953125 215.04226563 -31.625 213.75 C-31.60695312 212.48027344 -31.58890625 211.21054687 -31.5703125 209.90234375 C-31.52317153 206.76746923 -31.45737664 203.6341144 -31.375 200.5 C-29.065 200.5 -26.755 200.5 -24.375 200.5 C-24.375 195.88 -24.375 191.26 -24.375 186.5 C-26.685 186.5 -28.995 186.5 -31.375 186.5 C-31.4747145 181.41379356 -31.54686281 176.32817008 -31.59472656 171.24121094 C-31.61470285 169.51487298 -31.64189372 167.78860147 -31.67675781 166.0625 C-32.11550806 143.76366379 -32.11550806 143.76366379 -23.75 134.9375 C-23.15960938 134.29683594 -22.56921875 133.65617188 -21.9609375 132.99609375 C-20.375 131.5 -20.375 131.5 -18.375 130.5 C-19.74134478 120.24831054 -21.86512524 110.22306584 -24.10518265 100.13392067 C-24.74019977 97.27053887 -25.36893243 94.40584069 -25.99594116 91.54069519 C-27.77715164 83.40440589 -29.5657451 75.26977434 -31.3671875 67.13793945 C-32.47419397 62.1387528 -33.57096826 57.13741091 -34.66141891 52.13458824 C-35.07618616 50.24126564 -35.49478162 48.34877718 -35.91740799 46.45719337 C-36.50875736 43.809165 -37.08701633 41.15857389 -37.66259766 38.50708008 C-37.8371196 37.74059143 -38.01164154 36.97410278 -38.19145203 36.18438721 C-40.43544389 25.67185217 -39.9927151 16.64516272 -34.0546875 7.45703125 C-25.86253238 -3.04056644 -11.85992352 -5.46356027 0 0 Z " fill="#020101" transform="translate(175.375,235.5)"/>
<path d="M0 0 C10.17052502 -0.34963244 20.33959179 -0.61509037 30.51493168 -0.77718258 C35.24170684 -0.85503983 39.9643337 -0.96034755 44.6887207 -1.1315918 C78.51706968 -2.32744754 78.51706968 -2.32744754 84.85766602 3.46508789 C86.61950854 5.49919048 88.15224821 7.60278361 89.69866943 9.80328369 C92.2087993 13.05278277 93.75334039 14.78658658 97.90560913 15.49740601 C101.55213464 15.5242797 105.0782365 15.28764189 108.70703125 14.92578125 C109.98288086 14.79946823 111.25873047 14.67315521 112.57324219 14.54301453 C114.57457635 14.33600356 116.57590713 14.12887336 118.57646751 13.91451359 C137.26319329 11.96410757 155.23310982 11.35830093 170.52235413 23.61277771 C176.6503109 28.80998778 182.24712053 34.47043907 187.6875 40.375 C188.22143497 40.9506583 188.75536995 41.5263166 189.30548477 42.1194191 C202.88087236 56.83318337 215.57194362 70.81659113 215.3046875 91.828125 C215.09648416 96.54596974 213.75010113 100.4879962 211.77734375 104.765625 C210.85047873 107.42977972 211.06050596 108.37688288 212 111 C213.32321358 112.66991685 213.32321358 112.66991685 215.01953125 114.171875 C215.62990234 114.75453125 216.24027344 115.3371875 216.86914062 115.9375 C218.15065527 117.1327217 219.43446264 118.32549051 220.72070312 119.515625 C226.72046211 125.25726214 230.46238497 131.21751416 231.02734375 139.6484375 C230.92927708 148.08217125 228.52063721 154.59302195 223 161 C218.14175648 165.56853175 212.79504424 167.83850876 206.0625 168.125 C205.381875 168.08375 204.70125 168.0425 204 168 C204.0825 168.99 204.165 169.98 204.25 171 C204.25 177.4814205 200.40841156 183.46913257 196 188 C189.92375237 192.3507412 185.60070616 194.14340955 178 194 C177.95875 195.27875 177.9175 196.5575 177.875 197.875 C176.99735767 205.50928604 173.022944 211.73396404 167.0625 216.5 C160.15579739 221.11315608 153.11002769 221.63321538 145 221 C141.3125 220 141.3125 220 139 219 C138.62875 220.3303125 138.62875 220.3303125 138.25 221.6875 C135.71708306 228.39972989 131.25806177 231.87666862 125 235 C117.14964212 237.90089415 109.84357665 237.75033605 102.13037109 234.64501953 C98.66155937 232.82214842 96.01819182 230.59178728 93.21484375 227.90625 C92.66399612 227.38806702 92.1131485 226.86988403 91.54560852 226.33599854 C83.77078806 218.96732291 76.23927474 211.34554117 68.6875 203.75 C67.15713794 202.21460759 65.62654038 200.67944987 64.09570312 199.14453125 C60.39442424 195.43238063 56.69603193 191.71737446 53 188 C54.20381448 185.50638429 55.45428722 183.31856917 57 181 C54.03 178.03 51.06 175.06 48 172 C46.02 172.99 46.02 172.99 44 174 C42.1003418 174.82617188 42.1003418 174.82617188 40 175 C30.15037607 170.46256349 19.97412414 161.17510755 16 151 C13.66940187 139.49619183 14.59318657 127.29005468 15.4543457 115.6640625 C16.83258946 104.36682903 16.83258946 104.36682903 13.55056763 94.04299927 C11.62510105 92.37149485 9.64159283 90.88174391 7.5625 89.40625 C2.98614142 85.9879769 0.09912638 82.71666364 -0.81784058 76.97854614 C-2.0627101 65.53884349 -1.44052866 53.89500746 -1.02996826 42.42150879 C-0.87517608 37.63551845 -0.80773442 32.8483306 -0.73242188 28.06054688 C-0.57261788 18.70388607 -0.31740889 9.35255023 0 0 Z " fill="#FED9A9" transform="translate(0,0)"/>
<path d="M0 0 C0.4166979 3.37113183 0.65790304 6.7356291 0.875 10.125 C0.99230469 11.05699219 1.10960937 11.98898438 1.23046875 12.94921875 C1.39612079 16.42791155 1.14177422 18.68153691 0 22 C-1.56975882 23.61166741 -3.2618836 24.94817543 -5.0250349 26.34463787 C-10.12055381 30.48616425 -14.10352472 34.42854056 -15.26428223 41.0723877 C-15.83617914 47.07307455 -15.65441759 53.05763695 -15.48046875 59.07421875 C-15.46914945 61.29227871 -15.46449415 63.51038162 -15.46614075 65.72846985 C-15.45476231 71.5340864 -15.36261006 77.3354651 -15.25 83.13989258 C-15.10590969 91.31870651 -15.07128539 99.49881689 -15.02668762 107.67866516 C-15.00288354 112.0246848 -14.9477384 116.36847995 -14.866745 120.71379089 C-14.4955422 145.33707401 -14.4955422 145.33707401 -21.6875 152.9375 C-28.00091501 159.28504158 -32.844116 161.36839965 -41.875 161.5625 C-49.85860428 161.48330854 -55.805701 159.68454411 -61.83203125 154.390625 C-68.0892475 147.75279949 -69.14730798 140.94324466 -69.57421875 132.2109375 C-69.6165564 131.42098389 -69.65889404 130.63103027 -69.70251465 129.81713867 C-69.80583095 127.87830937 -69.90348035 125.93917954 -70 124 C-70.89234344 124.90566711 -71.78468689 125.81133423 -72.70407104 126.7444458 C-81.1321446 135.29436284 -89.5761788 143.82823004 -98.03593254 152.34680557 C-102.38425986 156.72639084 -106.72685166 161.1113575 -111.05664062 165.50927734 C-115.2385036 169.75652546 -119.43502637 173.98877402 -123.64194107 178.21120453 C-125.24111394 179.82142899 -126.83501323 181.43690929 -128.42339706 183.0577774 C-130.65621308 185.33440632 -132.90737644 187.59129945 -135.16357422 189.84472656 C-135.81022537 190.51294937 -136.45687653 191.18117218 -137.12312317 191.86964417 C-142.54828701 197.22355305 -148.50147713 200.21159908 -156.03125 201.53125 C-164.64753618 201.42218309 -172.74944997 199.25055003 -179 193 C-183 187.59459459 -183 187.59459459 -183 185 C-183.64066406 185.54269531 -184.28132813 186.08539063 -184.94140625 186.64453125 C-193.134783 193.42146731 -198.96986563 196.64131104 -209.78125 196.34375 C-217.12762362 195.55918583 -222.55422932 192.40417512 -227.4921875 186.9609375 C-233.44778757 179.21557161 -233.72656449 171.56444731 -233 162 C-232.48046875 159.58203125 -232.48046875 159.58203125 -232 158 C-232.76183594 157.58041016 -232.76183594 157.58041016 -233.5390625 157.15234375 C-240.53120725 153.0801396 -245.96348505 148.17220356 -248.53125 140.30078125 C-250.0520014 132.83642648 -249.99447028 124.66663316 -246 118 C-243.81339488 115.18170895 -241.48377218 112.55862559 -239 110 C-239.53109375 109.62488281 -240.0621875 109.24976563 -240.609375 108.86328125 C-247.71509068 103.71552738 -252.71273134 98.45744609 -254.4765625 89.609375 C-255.6171274 80.96230157 -254.04284457 74.18570499 -249 67 C-245.59881927 63.18761607 -241.9673494 59.61731809 -238.328125 56.03515625 C-237.27943386 54.99206889 -236.23140942 53.94831085 -235.184021 52.90391541 C-232.44192501 50.17320657 -229.69093747 47.4516328 -226.93792725 44.73193359 C-224.12370915 41.94854928 -221.31809408 39.15652213 -218.51171875 36.36523438 C-213.01614349 30.90171494 -207.51113541 25.44782808 -202 20 C-197.33867137 23.57729872 -194.26088466 27.10867301 -191 32 C-191.5593222 32.55710159 -192.11864441 33.11420319 -192.69491577 33.68818665 C-197.96517709 38.93841213 -203.23302887 44.1910379 -208.49818993 49.44637775 C-211.20515128 52.14812022 -213.91303515 54.84892441 -216.62304688 57.54760742 C-219.23824286 60.15193931 -221.8509896 62.75870527 -224.46205521 65.36717796 C-225.45872761 66.36200248 -226.45627986 67.35594632 -227.45472336 68.3489933 C-228.85283737 69.73985027 -230.24754117 71.13413271 -231.64208984 72.52856445 C-232.83455826 73.71770195 -232.83455826 73.71770195 -234.05111694 74.93086243 C-237.50580666 78.59872145 -238.39328742 80.94510964 -238.25390625 86 C-237.8807368 88.93942702 -236.87052468 90.7286486 -235 93 C-231.78144775 95.33067577 -228.89509474 95.46741137 -225 95 C-220.77950438 92.48252119 -217.40142469 89.62995704 -213.97607422 86.1237793 C-213.28214066 85.41823662 -213.28214066 85.41823662 -212.57418823 84.69844055 C-211.58008888 83.68681648 -210.58824267 82.67297415 -209.59847641 81.65711021 C-208.03176564 80.0507163 -206.45742178 78.45217909 -204.88064575 76.85566711 C-200.40215162 72.31933875 -195.93387389 67.77313457 -191.47998047 63.21264648 C-188.74748656 60.4158536 -186.00304748 57.63127049 -183.25061417 54.854105 C-182.20531596 53.79452754 -181.16471678 52.73029326 -180.12893295 51.66141319 C-178.68552972 50.17248815 -177.2275011 48.69951944 -175.76513672 47.22924805 C-174.93940155 46.38637741 -174.11366638 45.54350677 -173.26290894 44.6750946 C-171 43 -171 43 -168.83596802 43.12458801 C-166.31798827 44.32519153 -164.6947666 45.94591495 -162.75 47.9375 C-162.04359375 48.64777344 -161.3371875 49.35804687 -160.609375 50.08984375 C-159 52 -159 52 -159 54 C-160.241745 55.22421265 -160.241745 55.22421265 -162.09643555 56.73193359 C-168.9122934 62.5347633 -175.12991016 68.96538596 -181.45703125 75.2890625 C-182.85081416 76.67962729 -184.24467017 78.07011882 -185.63859558 79.46054077 C-188.54591245 82.36189794 -191.45118366 85.26528595 -194.35522461 88.16992188 C-198.07351059 91.88830991 -201.79865613 95.59974386 -205.52556324 99.3094883 C-208.40030335 102.17311113 -211.27048827 105.04126615 -214.13941002 107.91071701 C-215.511305 109.28143376 -216.88481766 110.65053347 -218.25998878 112.01796341 C-220.17917116 113.92734088 -222.09190539 115.8429591 -224.00317383 117.76025391 C-224.85178734 118.60043816 -224.85178734 118.60043816 -225.71754456 119.45759583 C-229.47695688 123.24717878 -232.63540248 126.55198805 -233.4375 131.9375 C-232.88393677 135.8124426 -231.40826469 137.95425348 -229 141 C-225.41261709 142.79369145 -221.89909767 142.69668355 -218 142 C-215.95332409 140.69176394 -215.95332409 140.69176394 -214.1307373 138.89707947 C-213.09595497 137.94011579 -213.09595497 137.94011579 -212.04026794 136.9638195 C-211.36697952 136.31575907 -210.6936911 135.66769863 -210 135 C-209.41481094 134.43961092 -208.82962189 133.87922184 -208.22669983 133.30185127 C-206.47828738 131.59998099 -204.75323048 129.87726593 -203.03320312 128.14672852 C-202.38829926 127.50197067 -201.74339539 126.85721283 -201.07894897 126.19291687 C-198.97733287 124.09061182 -196.8792673 121.98480223 -194.78125 119.87890625 C-193.313167 118.40895544 -191.84486103 116.93922728 -190.37634277 115.4697113 C-186.53386864 111.62344055 -182.6944086 107.77417494 -178.85559082 103.92425537 C-174.92899789 99.9873866 -170.99953094 96.05338869 -167.0703125 92.11914062 C-159.37740957 84.41555078 -151.68769113 76.70879065 -144 69 C-140.81913482 70.50946511 -138.70130094 72.07941825 -136.25 74.625 C-135.63640625 75.25664063 -135.0228125 75.88828125 -134.390625 76.5390625 C-133.93171875 77.02117187 -133.4728125 77.50328125 -133 78 C-134.36280101 81.0505885 -135.89767269 83.14267392 -138.26416016 85.49121094 C-139.27364716 86.50048645 -139.27364716 86.50048645 -140.30352783 87.53015137 C-141.04125427 88.25754517 -141.77898071 88.98493896 -142.5390625 89.734375 C-143.31642761 90.50881958 -144.09379272 91.28326416 -144.89471436 92.08117676 C-146.58293339 93.76178577 -148.27345895 95.44008024 -149.96600342 97.11633301 C-152.64301794 99.7678463 -155.31375738 102.42553526 -157.98291016 105.08496094 C-164.13153813 111.20877208 -170.28939999 117.32326063 -176.44772339 123.43731689 C-182.54120802 129.48722246 -188.63075192 135.54104185 -194.71356201 141.60168457 C-197.34747777 144.22261348 -199.98733657 146.83745611 -202.62744141 149.45214844 C-204.23890155 151.05634457 -205.85008215 152.66082157 -207.4609375 154.265625 C-208.56752716 155.3567157 -208.56752716 155.3567157 -209.69647217 156.46984863 C-210.3694635 157.14269897 -211.04245483 157.81554932 -211.73583984 158.50878906 C-212.32134613 159.08985413 -212.90685242 159.67091919 -213.51010132 160.26959229 C-215.63796328 162.74094742 -216.9069659 164.9165404 -217.1875 168.18359375 C-216.84387863 172.31420894 -216.45481644 175.1758576 -213.3125 178.0625 C-209.64756331 180.20614222 -208.14658888 180.77748542 -204 180 C-198.50506968 176.83849896 -194.3228608 172.59329461 -189.88330078 168.11035156 C-189.09238541 167.31972824 -188.30147003 166.52910492 -187.48658752 165.71452332 C-184.88472459 163.11127183 -182.29000939 160.50101739 -179.6953125 157.890625 C-177.88828496 156.07986565 -176.0808141 154.26954862 -174.2729187 152.45965576 C-170.00886918 148.18876138 -165.74930218 143.91344622 -161.49189556 139.63593364 C-156.64213361 134.76376958 -151.7866499 129.89732473 -146.930691 125.03133821 C-136.94744056 115.02721708 -126.97135206 105.01597959 -117 95 C-112.86378916 98.3810038 -109.18683431 101.66590534 -106 106 C-106.75977142 106.7553302 -107.51954285 107.5106604 -108.30233765 108.28887939 C-115.45899415 115.40500667 -122.61037465 122.5263983 -129.75661278 129.65298843 C-133.43080178 133.31673669 -137.10682954 136.97859976 -140.78710938 140.63623047 C-144.33816921 144.16557257 -147.88433273 147.6997663 -151.4271431 151.23738861 C-152.78019306 152.58674092 -154.13500321 153.93433058 -155.49158859 155.28012848 C-157.39018443 157.16422385 -159.28244647 159.05446795 -161.17333984 160.94628906 C-162.01814659 161.78030998 -162.01814659 161.78030998 -162.88002014 162.63117981 C-167.44707489 167.19255701 -167.44707489 167.19255701 -169.1875 173.18359375 C-168.84387863 177.31420894 -168.45481644 180.1758576 -165.3125 183.0625 C-161.64756331 185.20614222 -160.14658888 185.77748542 -156 185 C-149.97713678 181.61506119 -145.44307802 176.70316328 -140.61401367 171.82519531 C-139.6881546 170.898022 -138.76229553 169.97084869 -137.80838013 169.01557922 C-135.80350316 167.00778072 -133.80180955 164.99688116 -131.80257225 162.9834671 C-128.64383555 159.80239738 -125.4779641 156.62849256 -122.31111145 153.45550537 C-117.30795167 148.44098887 -112.30949367 143.42181587 -107.31308109 138.40057731 C-98.35031114 129.3933623 -89.38182413 120.39184779 -80.40819722 111.3954494 C-77.25805383 108.2368793 -74.11074033 105.07552333 -70.96564615 101.91192579 C-69.48402919 100.4222523 -68.00131066 98.93368592 -66.51809692 97.44560242 C-64.70567029 95.62711545 -62.89507946 93.8067964 -61.08659363 91.98439026 C-60.29454529 91.19082626 -59.50249695 90.39726227 -58.68644714 89.57965088 C-57.99459918 88.88428349 -57.30275122 88.18891609 -56.58993816 87.47247696 C-55 86 -55 86 -54 86 C-53.99413376 86.6403569 -53.98826752 87.28071381 -53.98222351 87.94047546 C-53.91826807 94.60798718 -53.83384241 101.2750172 -53.73754883 107.94213867 C-53.70430343 110.43002978 -53.67627034 112.91799624 -53.65356445 115.40600586 C-53.6200123 118.98323668 -53.56769408 122.55977719 -53.51171875 126.13671875 C-53.50213387 127.80416389 -53.50213387 127.80416389 -53.49235535 129.5052948 C-53.47256119 130.54599625 -53.45276703 131.58669769 -53.43237305 132.65893555 C-53.42126999 133.5716069 -53.41016693 134.48427826 -53.39872742 135.42460632 C-52.91555709 138.54541954 -51.832305 140.44706819 -50 143 C-46.08242412 145.2852526 -42.46762648 145.47867427 -38 145 C-34.61060444 142.86320715 -33.27417443 141.8225233 -32 138 C-31.96051514 136.58081212 -31.98255062 135.15943406 -32.0436554 133.74101257 C-32.07722137 132.87151474 -32.11078735 132.00201691 -32.14537048 131.10617065 C-32.18674637 130.15420807 -32.22812225 129.20224548 -32.27075195 128.22143555 C-32.66616073 117.83633901 -32.9158009 107.45487699 -33.08108234 97.06361675 C-33.18758041 90.7837722 -33.34741438 84.51530515 -33.63549805 78.2409668 C-35.66169521 32.67925476 -35.66169521 32.67925476 -22.20480251 17.59358311 C-5.21345193 0 -5.21345193 0 0 0 Z " fill="#020101" transform="translate(512,51)"/>
<path d="M0 0 C19.47 0 38.94 0 59 0 C54.84886155 10.37784614 51.66599312 15.6961743 41.89453125 20.2734375 C37.68551987 21.88761506 33.99877914 22.11817627 29.484375 22.09765625 C28.23398438 22.09443359 26.98359375 22.09121094 25.6953125 22.08789062 C23.74238281 22.07532227 23.74238281 22.07532227 21.75 22.0625 C19.77386719 22.05573242 19.77386719 22.05573242 17.7578125 22.04882812 C14.50518896 22.03704326 11.25258876 22.0191079 8 22 C8 26.95 8 31.9 8 37 C9.36125 37.2475 10.7225 37.495 12.125 37.75 C19.42077525 39.39669535 23.62488554 43.16651405 28 49 C29.92578485 52.17825332 30.23831512 54.50489983 30.1953125 58.203125 C30.18886719 59.1828125 30.18242187 60.1625 30.17578125 61.171875 C30.15902344 62.18765625 30.14226562 63.2034375 30.125 64.25 C30.11597656 65.28125 30.10695312 66.3125 30.09765625 67.375 C30.07412138 69.91676616 30.03825131 72.45841272 30 75 C34.95 75 39.9 75 45 75 C44.93950158 71.20674909 44.85225081 67.41717153 44.75 63.625 C44.73582031 62.56410156 44.72164062 61.50320313 44.70703125 60.41015625 C44.48360626 53.12650162 43.07439009 47.57298274 40 41 C39.32468783 39.3368176 38.65573987 37.67099594 38 36 C39.14275391 35.67128906 39.14275391 35.67128906 40.30859375 35.3359375 C47.43815578 33.14633418 52.99529674 30.37562457 59 26 C59.66 25.67 60.32 25.34 61 25 C61.49306641 26.08667969 61.49306641 26.08667969 61.99609375 27.1953125 C65.92762961 35.18623904 70.12859086 39.06429543 78 43 C86.83149949 43.66591034 94.21269502 43.54951293 102 39 C103.33006776 38.3268418 104.66254076 37.65835022 106 37 C106.47050781 37.34933594 106.94101562 37.69867188 107.42578125 38.05859375 C108.35970703 38.74115234 108.35970703 38.74115234 109.3125 39.4375 C109.92738281 39.88996094 110.54226563 40.34242188 111.17578125 40.80859375 C115.08483957 43.36161899 118.94965776 43.15081693 123.4375 43.125 C124.75621094 43.12757813 126.07492187 43.13015625 127.43359375 43.1328125 C130.24864003 43.02798055 132.33709569 42.73678929 135 42 C137.36991152 79.15572523 137.36991152 79.15572523 130.90698242 87.68603516 C128.64252267 90.07492284 126.2949139 92.2878991 123.77490234 94.40527344 C120.74699804 97.12580589 118.42729436 100.37445503 116 103.625 C112.74885857 107.82471975 109.40219415 111.91736702 106 116 C105.67 122.6 105.34 129.2 105 136 C82.89 136 60.78 136 38 136 C37.01 122.635 37.01 122.635 36 109 C30.72469388 102.66341979 30.72469388 102.66341979 24.85473633 97.61108398 C23.68752548 96.73237137 23.68752548 96.73237137 22.49673462 95.83590698 C20.77725301 94.5715322 19.05192886 93.31507729 17.3218689 92.06521606 C8.44616514 85.43540721 -0.57449864 78.2960658 -2.46261692 66.86168289 C-3.53046848 57.52329589 -3.03538207 48.12051933 -2.50024414 38.76171875 C-2.28945257 34.63957243 -2.20875631 30.51480233 -2.11328125 26.38867188 C-1.955666 20.39276745 -1.75469489 14.40158146 -1.44677734 8.41137695 C-1.38565765 7.2178511 -1.32453796 6.02432526 -1.26156616 4.79463196 C-1 2 -1 2 0 0 Z " fill="#FDD8A9" transform="translate(174,376)"/>
<path d="M0 0 C3.34965324 -0.44756913 6.69163167 -0.70510264 10.0625 -0.9375 C10.98611328 -1.06318359 11.90972656 -1.18886719 12.86132812 -1.31835938 C16.41957229 -1.50052205 18.65358983 -1.30792521 22 0 C23.70256693 1.74185403 25.15760749 3.60796663 26.66363525 5.52166748 C32.13396992 12.35137647 32.13396992 12.35137647 40.03305054 15.49740601 C43.63836859 15.52408824 47.11989336 15.28956375 50.70703125 14.92578125 C51.98054443 14.79946823 53.25405762 14.67315521 54.56616211 14.54301453 C56.57001468 14.33611201 58.57386496 14.12909288 60.57691002 13.91451359 C79.26332955 11.96372021 97.23344064 11.35856609 112.52235413 23.61277771 C118.6503109 28.80998778 124.24712053 34.47043907 129.6875 40.375 C130.22143497 40.9506583 130.75536995 41.5263166 131.30548477 42.1194191 C144.88087236 56.83318337 157.57194362 70.81659113 157.3046875 91.828125 C157.09648416 96.54596974 155.75010113 100.4879962 153.77734375 104.765625 C152.85047873 107.42977972 153.06050596 108.37688288 154 111 C155.32321358 112.66991685 155.32321358 112.66991685 157.01953125 114.171875 C157.62990234 114.75453125 158.24027344 115.3371875 158.86914062 115.9375 C160.15065527 117.1327217 161.43446264 118.32549051 162.72070312 119.515625 C168.72046211 125.25726214 172.46238497 131.21751416 173.02734375 139.6484375 C172.92927708 148.08217125 170.52063721 154.59302195 165 161 C160.14175648 165.56853175 154.79504424 167.83850876 148.0625 168.125 C147.381875 168.08375 146.70125 168.0425 146 168 C146.0825 168.99 146.165 169.98 146.25 171 C146.25 177.4814205 142.40841156 183.46913257 138 188 C131.92375237 192.3507412 127.60070616 194.14340955 120 194 C119.95875 195.27875 119.9175 196.5575 119.875 197.875 C118.99735767 205.50928604 115.022944 211.73396404 109.0625 216.5 C102.15579739 221.11315608 95.11002769 221.63321538 87 221 C83.3125 220 83.3125 220 81 219 C80.62875 220.3303125 80.62875 220.3303125 80.25 221.6875 C77.71708306 228.39972989 73.25806177 231.87666862 67 235 C59.14964212 237.90089415 51.84357665 237.75033605 44.13037109 234.64501953 C40.66155937 232.82214842 38.01819182 230.59178728 35.21484375 227.90625 C34.66399612 227.38806702 34.1131485 226.86988403 33.54560852 226.33599854 C25.77078806 218.96732291 18.23927474 211.34554117 10.6875 203.75 C9.15713794 202.21460759 7.62654038 200.67944987 6.09570312 199.14453125 C2.39442424 195.43238063 -1.30396807 191.71737446 -5 188 C-3.39464713 184.58940597 -1.59481099 182.38207516 1.125 179.75 C1.84945312 179.04359375 2.57390625 178.3371875 3.3203125 177.609375 C4.15175781 176.81273437 4.15175781 176.81273437 5 176 C8.3955378 177.46803376 10.59241528 179.35412334 13.18603516 181.97485352 C14.40717514 183.20106163 14.40717514 183.20106163 15.65298462 184.45204163 C16.52289032 185.33540695 17.39279602 186.21877228 18.2890625 187.12890625 C19.1886972 188.03374252 20.08833191 188.9385788 21.01522827 189.87083435 C23.4017304 192.2721335 25.78408297 194.67738961 28.16412354 197.08508301 C31.52373316 200.48273124 34.88858207 203.87516261 38.25619507 207.26487732 C40.04851575 209.06949318 41.83815718 210.8767746 43.62490845 212.68690491 C44.83659195 213.90838478 44.83659195 213.90838478 46.07275391 215.15454102 C46.78460846 215.87464859 47.49646301 216.59475616 48.22988892 217.33668518 C51.28190978 220.20456821 53.80465648 220.33440375 57.9609375 220.2890625 C61.16544562 219.83478357 62.82724211 218.30444019 65 216 C66.25497957 212.2350613 66.52064444 209.96991382 66 206 C64.10961607 202.9229517 61.55598168 200.5319065 59 198 C57.8052901 196.79366109 56.61134375 195.58656573 55.41796875 194.37890625 C51.96585481 190.89822248 48.48812052 187.44457949 45 184 C45.95253871 182.88361407 46.90580496 181.76784888 47.859375 180.65234375 C48.39014648 180.03093506 48.92091797 179.40952637 49.46777344 178.76928711 C51.22806004 176.73665533 52.99282611 174.79211954 55 173 C55.66 173 56.32 173 57 173 C58.34863281 174.36767578 58.34863281 174.36767578 59.953125 176.3203125 C64.60435304 181.7885179 69.6658357 186.81199033 74.75 191.875 C75.70459534 192.83316574 76.65902343 193.79149813 77.61328125 194.75 C78.51949219 195.65492188 79.42570312 196.55984375 80.359375 197.4921875 C81.58865723 198.71977783 81.58865723 198.71977783 82.84277344 199.97216797 C86.90866375 203.79417849 89.40123102 204.43311926 94.7734375 204.328125 C98.05234297 203.84491788 99.76762121 202.37190247 102 200 C103.65492999 196.69014001 103.73906467 193.55244547 103 190 C97.97690668 182.36180768 90.04357819 175.93042237 83.5625 169.5 C82.4379167 168.38044368 81.31356595 167.26065371 80.18945312 166.140625 C77.46230656 163.42438466 74.73204093 160.71131708 72 158 C73.50946511 154.81913482 75.07941825 152.70130094 77.625 150.25 C78.25664062 149.63640625 78.88828125 149.0228125 79.5390625 148.390625 C80.02117187 147.93171875 80.50328125 147.4728125 81 147 C85.14471152 148.62351595 87.86711377 151.64749339 90.90234375 154.77734375 C91.46192276 155.344496 92.02150177 155.91164825 92.59803772 156.49598694 C94.98437292 158.91491854 97.35871351 161.34550029 99.73413086 163.77514648 C101.47355474 165.55084317 103.2190249 167.32043763 104.96484375 169.08984375 C105.49520737 169.63680405 106.02557098 170.18376434 106.57200623 170.74729919 C111.6404037 175.93210568 111.6404037 175.93210568 118.28125 178.28515625 C122.33211791 177.8786431 125.19596993 177.42119862 128.0625 174.375 C130.39900663 170.30495619 130.95374643 168.60977443 130 164 C126.3996751 158.82887116 121.52885152 154.49729789 117.03125 150.109375 C116.50251282 149.59301483 115.97377563 149.07665466 115.42901611 148.54464722 C113.22399812 146.39476918 111.01817823 144.24622906 108.79394531 142.11621094 C107.15332228 140.54185658 105.5288062 138.95231422 103.90625 137.359375 C103.39807739 136.88014587 102.88990479 136.40091675 102.36633301 135.90716553 C100.97851562 134.53027344 100.97851562 134.53027344 99 132 C99.13711077 128.12479415 101.33971504 126.34312854 104.0625 123.75 C105.16271484 122.69039062 105.16271484 122.69039062 106.28515625 121.609375 C106.85105469 121.07828125 107.41695313 120.5471875 108 120 C110.80076387 121.27629537 112.83584599 122.59132895 114.99267578 124.78149414 C115.54649933 125.33869644 116.10032288 125.89589874 116.67092896 126.46998596 C117.25647552 127.06899216 117.84202209 127.66799835 118.4453125 128.28515625 C119.05639862 128.90144394 119.66748474 129.51773163 120.29708862 130.1526947 C122.24454382 132.11793324 124.18516909 134.08973764 126.125 136.0625 C128.07283601 138.03794275 130.02210746 140.01191351 131.97433472 141.98301697 C133.18797929 143.20893061 134.39894085 144.43750729 135.60696411 145.66896057 C139.92103861 150.10091535 139.92103861 150.10091535 145.8125 151.3125 C149.13227327 151.28232024 149.99044521 151.0060988 152.9375 149.125 C155.59730993 146.38458977 155.9423887 145.32262329 156.625 141.5 C156.55743454 137.28917478 155.02305839 135.4712146 152.18579102 132.44970703 C150.9550737 131.1344101 150.9550737 131.1344101 149.69949341 129.7925415 C144.9823205 124.91277366 140.21362901 120.09125386 135.40234375 115.3046875 C134.31639418 114.22060871 133.23066941 113.13630471 132.14515686 112.05178833 C129.32148922 109.23189399 126.49482942 106.41501855 123.66748047 103.59881592 C120.76930313 100.71096584 117.87404205 97.8201951 114.97851562 94.9296875 C109.32181962 89.28363701 103.66195112 83.64078055 98 78 C98.93590504 76.8944811 99.87379858 75.79064547 100.8125 74.6875 C101.33457031 74.07261719 101.85664063 73.45773438 102.39453125 72.82421875 C102.92433594 72.22222656 103.45414062 71.62023437 104 71 C104.47824219 70.40832031 104.95648438 69.81664063 105.44921875 69.20703125 C107 68 107 68 108.99847412 68.14476013 C111.16880912 69.07213111 112.37218956 70.00908305 114.02441406 71.68383789 C114.58469299 72.24434341 115.14497192 72.80484894 115.722229 73.38233948 C116.31404968 73.98964401 116.90587036 74.59694855 117.515625 75.22265625 C118.13145447 75.84273056 118.74728394 76.46280487 119.3817749 77.10166931 C121.34500635 79.08167905 123.29754436 81.07186919 125.25 83.0625 C126.58003748 84.40758535 127.91075879 85.75199488 129.2421875 87.09570312 C132.50277537 90.38934906 135.75381188 93.69216339 139 97 C140.62695762 93.9148664 141.31906779 91.7625428 141.375 88.25 C141.40335938 87.45078125 141.43171875 86.6515625 141.4609375 85.828125 C139.44770394 73.47574281 127.76317726 62.44004644 119.75 53.5625 C119.30693386 53.0710638 118.86386772 52.57962761 118.40737534 52.07329941 C108.48072591 41.19160458 98.62968826 31.9856802 83.19332886 31.17054749 C75.50585278 30.98425031 67.87463134 31.41158684 60.21052551 31.96400833 C30.77679065 34.08082537 30.77679065 34.08082537 20.01171875 25.23046875 C12.2042703 18.21643286 5.53529445 9.90254935 0 1 C0 0.67 0 0.34 0 0 Z " fill="#030202" transform="translate(58,0)"/>
<path d="M0 0 C4.95 0 9.9 0 15 0 C14.86795166 1.41289307 14.73590332 2.82578613 14.59985352 4.28149414 C11.18148536 31.63670283 11.18148536 31.63670283 19.07373047 56.61914062 C22.85710878 60.62260105 27.11843173 63.99187789 31.5 67.3125 C46.36050862 78.67202272 46.36050862 78.67202272 47.38568115 85.61022949 C47.33402691 88.60904867 47.03533192 91.4613875 46.60546875 94.4296875 C46.38336983 96.00476578 46.38336983 96.00476578 46.15678406 97.61166382 C45.83167606 99.82935705 45.50421414 102.04670627 45.17459106 104.26373291 C43.1860794 118.24099773 42.76083227 131.00729087 51.29138184 142.8371582 C61.62782048 156.13363812 73.87172095 167.86844464 86.0625 179.4375 C86.97250637 180.30128139 87.88251274 181.16506279 88.82009506 182.05501938 C100.33494553 192.94284588 112.06679965 203.57319643 124 214 C122.41282827 217.33996139 121.35323576 219.23513907 118 221 C114.00157833 221.66640361 111.53670146 222.06456816 108.14697266 219.71629333 C107.22730713 218.87144127 107.22730713 218.87144127 106.2890625 218.00952148 C105.59361328 217.37271454 104.89816406 216.73590759 104.18164062 216.07980347 C100.44117592 212.51394053 96.76689722 208.8890273 93.125 205.22265625 C91.91009888 204.00563271 91.91009888 204.00563271 90.6706543 202.76402283 C88.11138985 200.19920861 85.5556447 197.63092052 83 195.0625 C81.25413867 193.31161717 79.50804713 191.56096387 77.76171875 189.81054688 C73.50514802 185.54301384 69.25145284 181.27263134 65 177 C64.13375 177.433125 64.13375 177.433125 63.25 177.875 C61.16666667 178.91666667 59.08333333 179.95833333 57 181 C54.03 178.03 51.06 175.06 48 172 C46.02 172.99 46.02 172.99 44 174 C42.1003418 174.82617188 42.1003418 174.82617188 40 175 C30.15037607 170.46256349 19.97412414 161.17510755 16 151 C13.66940187 139.49619183 14.59318657 127.29005468 15.4543457 115.6640625 C16.83258946 104.36682903 16.83258946 104.36682903 13.55056763 94.04299927 C11.62510105 92.37149485 9.64159283 90.88174391 7.5625 89.40625 C2.98614142 85.9879769 0.09912638 82.71666364 -0.81784058 76.97854614 C-2.0627101 65.53884349 -1.44052866 53.89500746 -1.02996826 42.42150879 C-0.87517608 37.63551845 -0.80773442 32.8483306 -0.73242188 28.06054688 C-0.57260909 18.70337131 -0.30933793 9.35342719 0 0 Z " fill="#FEB580" transform="translate(0,0)"/>
<path d="M0 0 C-0.06439774 0.85015182 -0.12879547 1.70030365 -0.19514465 2.57621765 C-5.63029668 45.16341318 -5.63029668 45.16341318 6.17578125 84.05859375 C12.63558527 91.45998971 20.67906079 96.90715664 29 102 C32.23271785 104.02661572 34.9286583 105.75510228 37 109 C38.06010918 113.67817841 38.07325021 118.15763747 38 122.9375 C38 127.248125 38 131.55875 38 136 C27.77 136 17.54 136 7 136 C6.67 131.38 6.34 126.76 6 122 C3.99622657 118.24204268 3.99622657 118.24204268 0.93359375 115.62890625 C0.42127701 115.13261215 -0.09103973 114.63631805 -0.61888123 114.12498474 C-2.23846939 112.57052463 -3.89726901 111.06779493 -5.5625 109.5625 C-6.64941963 108.53238518 -7.73342955 107.49919119 -8.81445312 106.46289062 C-13.84750107 101.67186128 -19.01381658 97.02986532 -24.29663086 92.51538086 C-24.85874268 92.01530518 -25.42085449 91.51522949 -26 91 C-26.72356689 90.40743408 -27.44713379 89.81486816 -28.19262695 89.2043457 C-30.61166575 86.25398757 -30.46192102 84.48181405 -30.390625 80.703125 C-30.37773437 79.49785156 -30.36484375 78.29257812 -30.3515625 77.05078125 C-30.31804687 75.79652344 -30.28453125 74.54226563 -30.25 73.25 C-30.23195312 71.98027344 -30.21390625 70.71054687 -30.1953125 69.40234375 C-30.14817153 66.26746923 -30.08237664 63.1341144 -30 60 C-27.69 60 -25.38 60 -23 60 C-23 55.05 -23 50.1 -23 45 C-20.36 45 -17.72 45 -15 45 C-15.02094727 44.03698975 -15.04189453 43.07397949 -15.06347656 42.08178711 C-15.13628942 38.48314488 -15.18194797 34.88456677 -15.21972656 31.28540039 C-15.2397487 29.73255435 -15.26697517 28.17978281 -15.30175781 26.62719727 C-15.3506961 24.38539168 -15.37306168 22.14458907 -15.390625 19.90234375 C-15.41127014 19.21663803 -15.43191528 18.53093231 -15.45318604 17.82444763 C-15.45568129 12.37219004 -13.95227101 9.40975623 -11 5 C-9.21875 3.22265625 -9.21875 3.22265625 -7.5 2.0625 C-6.9328125 1.66160156 -6.365625 1.26070313 -5.78125 0.84765625 C-4 0 -4 0 0 0 Z " fill="#FDB57F" transform="translate(174,376)"/>
<path d="M0 0 C2.93423195 1.79646854 4.47205355 2.9441071 6 6 C6.93999213 15.16902688 4.81321352 23.93485642 2.8125 32.8125 C2.48879071 34.28885334 2.16604729 35.76541878 1.84423828 37.2421875 C-0.1165827 46.20167079 -2.15145918 55.14512968 -4.22314453 64.07958984 C-5.81525366 71.00493696 -7.20076709 77.96361948 -8.5625 84.9375 C-10.35050103 94.08934362 -12.45083949 103.03073154 -15 112 C-22.59 112 -30.18 112 -38 112 C-35.02651218 97.03664194 -32.01630524 82.08090428 -28.97360229 67.13146973 C-28.57758439 65.1838248 -28.18248918 63.235992 -27.7883606 61.28796387 C-25.8972094 51.94509899 -24.00052326 42.63031981 -21.60791016 33.40014648 C-20.77156736 30.09810389 -20.12842048 26.78533528 -19.5 23.4375 C-16.20060253 6.85547664 -16.20060253 6.85547664 -12.9375 1.8125 C-8.6654859 -0.82342359 -4.89153113 -0.89155986 0 0 Z " fill="#FCB47F" transform="translate(250,249)"/>
<path d="M0 0 C6.31246975 4.47133274 7.1273898 11.16968123 8.64819336 18.37548828 C8.87548882 19.44516594 8.87548882 19.44516594 9.1073761 20.53645325 C9.60469071 22.88041657 10.09720015 25.22536344 10.58984375 27.5703125 C10.93815752 29.21458538 11.28684231 30.85877971 11.63587952 32.50289917 C12.55331002 36.82788046 13.46697239 41.15364781 14.37945557 45.47967529 C15.83533753 52.38106218 17.29497697 59.28164793 18.75833321 66.1814537 C19.26482757 68.57369686 19.76851492 70.96651853 20.2719574 73.35940552 C21.84472614 80.80299157 23.48593491 88.20741926 25.40328979 95.572052 C26.73193936 100.97818051 27.28284454 106.4834195 28 112 C20.41 112 12.82 112 5 112 C0.74124109 94.21418011 -3.22337623 76.39732477 -6.86262512 58.4747467 C-7.07564522 57.42570412 -7.07564522 57.42570412 -7.29296875 56.35546875 C-7.4338945 55.66098129 -7.57482025 54.96649384 -7.72001648 54.2509613 C-9.87104869 43.6808767 -12.16292643 33.1404327 -14.44677734 22.59838867 C-17.47743997 8.36390396 -17.47743997 8.36390396 -14.125 3 C-9.97815458 -0.90291333 -5.4718314 -0.75830104 0 0 Z " fill="#FCB47E" transform="translate(168,249)"/>
<path d="M0 0 C2.72460938 0.14648437 2.72460938 0.14648437 5.37890625 0.52734375 C6.31283203 0.59501953 7.24675781 0.66269531 8.20898438 0.73242188 C10.46989541 0.90633811 12.69678625 1.14863157 14.94140625 1.46484375 C9.69078783 13.40022654 -3.2660448 27.89075507 -15.05859375 33.46484375 C-22.05556393 35.0548914 -29.3654802 34.00817276 -36.43359375 33.33984375 C-48.67973896 32.19182584 -57.6911701 32.38118401 -67.5617981 40.4052124 C-78.3966496 50.09552641 -87.99876177 61.11859184 -97.05859375 72.46484375 C-100.2647024 70.93225335 -102.65988474 69.22368186 -105.30859375 66.83984375 C-106.36820312 65.89238281 -106.36820312 65.89238281 -107.44921875 64.92578125 C-107.9803125 64.44367188 -108.51140625 63.9615625 -109.05859375 63.46484375 C-104.67377683 53.83503093 -95.84323629 45.9449172 -88.68359375 38.27734375 C-88.22298428 37.78270504 -87.7623748 37.28806633 -87.28780746 36.77843857 C-76.51296371 25.29916322 -66.61153933 15.52020179 -50.04016113 14.88175964 C-45.26416013 14.90373282 -40.62081155 15.33857891 -35.89501953 16.00512695 C-27.09923193 17.59568619 -27.09923193 17.59568619 -18.91275024 15.07363892 C-16.09264523 12.55639781 -13.63056682 9.8289448 -11.17315674 6.96124268 C-5.53275846 0.41978371 -5.53275846 0.41978371 0 0 Z " fill="#020201" transform="translate(430.05859375,-1.46484375)"/>
<path d="M0 0 C1.33417969 1.19109375 1.33417969 1.19109375 2.6953125 2.40625 C5.0221982 4.4318714 7.34804607 6.2358524 9.90527344 7.96875 C19.28751821 14.35860354 30.20493424 22.19696546 32.6015625 33.95007324 C33.72419123 44.40495195 33.216489 54.94738729 32.24560547 65.39257812 C31.11363072 79.06410499 31.11363072 79.06410499 37.23535156 90.89160156 C41.78780851 95.70793768 46.72301168 99.99680255 52 104 C50.4674096 107.20610865 48.75883811 109.60129099 46.375 112.25 C45.74335937 112.95640625 45.11171875 113.6628125 44.4609375 114.390625 C43.73777344 115.18726563 43.73777344 115.18726563 43 116 C33.82305565 114.34322009 25.15485237 105.9724552 19.52468872 98.82049561 C11.81278529 87.16889688 14.54841699 69.96738856 15.50512695 56.71435547 C16.82025322 43.74347135 16.82025322 43.74347135 11.69702148 32.39624023 C9.07081059 29.79992346 6.26017473 27.48299333 3.40576172 25.14404297 C0.79796306 22.95031731 0.03774479 22.09742175 -1.23779297 18.80517578 C-1.46207788 15.76020666 -1.34866612 13.08404386 -0.9375 10.0625 C-0.86982422 9.08087891 -0.80214844 8.09925781 -0.73242188 7.08789062 C-0.5583881 4.70942899 -0.31574437 2.36306323 0 0 Z " fill="#030201" transform="translate(0,59)"/>
<path d="M0 0 C4.95 0 9.9 0 15 0 C15 6.6 15 13.2 15 20 C16.32 20.66 17.64 21.32 19 22 C20.22693777 22.96719248 21.41745093 23.98173097 22.57519531 25.03076172 C23.25559875 25.64676239 23.9360022 26.26276306 24.63702393 26.89743042 C27.72731757 29.76369306 30.7865802 32.66069336 33.828125 35.57861328 C35.43052061 37.09798154 37.05224483 38.59724479 38.69335938 40.07470703 C53.05892847 53.03217164 53.05892847 53.03217164 54.04492188 61.59472656 C54.21081781 66.48566937 53.76066181 71.17175277 53 76 C47.72 76 42.44 76 37 76 C37.07347656 73.94652344 37.14695313 71.89304687 37.22265625 69.77734375 C36.5344306 60.26786066 31.17791831 55.65553906 24.4375 49.5625 C23.35058037 48.53238518 22.26657045 47.49919119 21.18554688 46.46289062 C16.15249893 41.67186128 10.98618342 37.02986532 5.70336914 32.51538086 C5.14125732 32.01530518 4.57914551 31.51522949 4 31 C3.27643311 30.40743408 2.55286621 29.81486816 1.80737305 29.2043457 C-0.61166575 26.25398757 -0.46192102 24.48181405 -0.390625 20.703125 C-0.37773437 19.49785156 -0.36484375 18.29257812 -0.3515625 17.05078125 C-0.31804687 15.79652344 -0.28453125 14.54226563 -0.25 13.25 C-0.23195312 11.98027344 -0.21390625 10.71054687 -0.1953125 9.40234375 C-0.14817812 6.26790742 -0.07643558 3.1338587 0 0 Z " fill="#030201" transform="translate(144,436)"/>
<path d="M0 0 C0.33 0 0.66 0 1 0 C1.01213028 1.09208015 1.01213028 1.09208015 1.02450562 2.20622253 C1.10254092 9.07724827 1.18985856 15.94810055 1.28752708 22.81887341 C1.33741068 26.35097027 1.38374107 29.88303839 1.421875 33.4152832 C1.46590254 37.47886761 1.52552107 41.54209472 1.5859375 45.60546875 C1.59748871 46.8702153 1.60903992 48.13496185 1.62094116 49.43803406 C1.64081085 50.61888077 1.66068054 51.79972748 1.68115234 53.01635742 C1.69447601 54.05338303 1.70779968 55.09040863 1.7215271 56.15885925 C2.01576718 59.1608658 2.62975418 61.31815069 4 64 C6.51364756 65.82619087 6.51364756 65.82619087 9 67 C7.60478153 70.37177797 6.23717239 72.25017709 3 74 C-2.1977646 74.5775294 -5.62736563 73.88196356 -10 71 C-12.50830211 67.50525385 -13.39365874 64.95394342 -13.55932617 60.67822266 C-13.60494186 59.6400943 -13.65055756 58.60196594 -13.69755554 57.53237915 C-13.7290419 56.42083466 -13.76052826 55.30929016 -13.79296875 54.1640625 C-13.82989334 53.01134857 -13.86681793 51.85863464 -13.90486145 50.67098999 C-13.97567033 48.23530882 -14.03819262 45.79937461 -14.09301758 43.36328125 C-14.18703538 39.6433831 -14.33976505 35.9287545 -14.49414062 32.2109375 C-14.5557221 29.8412376 -14.61378133 27.47144301 -14.66796875 25.1015625 C-14.72172165 23.99406647 -14.77547455 22.88657043 -14.83085632 21.74551392 C-14.91027073 14.16522076 -14.91027073 14.16522076 -12.29336548 10.81536865 C-10.27492913 9.04767894 -8.19690386 7.5356496 -6 6 C-4.83001873 4.87883459 -3.68177708 3.73428789 -2.5625 2.5625 C-1.716875 1.716875 -0.87125 0.87125 0 0 Z " fill="#FCB47F" transform="translate(471,123)"/>
<path d="M0 0 C2.1875 -0.3125 2.1875 -0.3125 5 0 C11.15193043 4.86431709 12.1265285 11.07545085 13.6640625 18.4230957 C13.8171991 19.14103302 13.97033569 19.85897034 14.12811279 20.59866333 C14.63032546 22.95702517 15.12767095 25.31638518 15.625 27.67578125 C15.97576068 29.32723032 16.32684006 30.97861173 16.67822266 32.62992859 C17.60108683 36.97082902 18.5198826 41.31258043 19.43774414 45.65454102 C20.54948681 50.91009569 21.66589669 56.16466043 22.78170776 61.41935253 C23.65077137 65.51241064 24.51913248 69.60561324 25.38525391 73.69929504 C25.70214512 75.19577097 26.01903953 76.69224621 26.3359375 78.1887207 C26.4842804 78.89065206 26.63262329 79.59258341 26.78546143 80.31578541 C27.5662426 83.99943166 28.37571389 87.67462924 29.21875 91.34448242 C29.93498313 94.695782 30.17497129 97.58805977 30 101 C27.03 101 24.06 101 21 101 C16.74199072 82.00157316 12.5296006 62.99566092 8.52099609 43.94287109 C8.23926756 42.6038391 7.95752934 41.26480913 7.67578125 39.92578125 C7.53819397 39.27160217 7.40060669 38.6174231 7.2588501 37.94342041 C6.26807552 33.24330195 5.25409239 28.54853253 4.23046875 23.85546875 C3.94672727 22.55014109 3.66303488 21.24480276 3.37939453 19.93945312 C2.84853174 17.50122859 2.31452716 15.06368523 1.77685547 12.62695312 C1.54240723 11.54736328 1.30795898 10.46777344 1.06640625 9.35546875 C0.85959229 8.41340576 0.65277832 7.47134277 0.43969727 6.50073242 C0 4 0 4 0 0 Z " fill="#FCD6A7" transform="translate(163,249)"/>
<path d="M0 0 C3.70390021 2.02666238 5.65363011 3.48044516 8 7 C8.38598073 11.10820735 8.32917693 15.21685055 8.31567383 19.34179688 C8.31252149 21.36123001 8.33595198 23.37918625 8.36132812 25.3984375 C8.36197266 26.6771875 8.36261719 27.9559375 8.36328125 29.2734375 C8.36626221 30.44310059 8.36924316 31.61276367 8.37231445 32.81787109 C7.96357862 36.31128938 7.01529672 38.15670332 5 41 C4.608125 41.5775 4.21625 42.155 3.8125 42.75 C0.79856576 44.82857534 -2.42802934 45.23633076 -6 45 C-9.79560358 43.03190926 -11.6288722 41.5566917 -14 38 C-14.43410313 33.46803255 -14.41407449 28.92662828 -14.42553711 24.37646484 C-14.43742464 22.13918237 -14.48660008 19.90466831 -14.53710938 17.66796875 C-14.54657549 16.23959675 -14.55380963 14.81120786 -14.55859375 13.3828125 C-14.57204834 12.08746582 -14.58550293 10.79211914 -14.59936523 9.45751953 C-13.85175521 5.14482985 -12.34919602 3.71686125 -9 1 C-5.89046621 -0.5547669 -3.43733239 -0.28644437 0 0 Z " fill="#FCB47F" transform="translate(301,361)"/>
<path d="M0 0 C3.23919719 1.32799702 5.14209135 3.03189665 7 6 C7.85228966 10.6521504 7.88283202 15.13328575 7.74780273 19.84985352 C7.68753875 22.06107816 7.68623442 24.26658567 7.69335938 26.47851562 C7.56367108 38.38717101 7.56367108 38.38717101 3 43 C-0.71710563 44.85855282 -4.95277281 44.57908439 -9 44 C-12.34625024 41.47323961 -13.67977847 39.96066458 -15 36 C-15.27150825 31.90709908 -15.3131903 27.8143395 -15.35009766 23.71313477 C-15.37478653 21.70486438 -15.43139715 19.69706954 -15.48828125 17.68945312 C-15.58716393 6.81785204 -15.58716393 6.81785204 -12.6015625 3.14453125 C-8.55758924 -0.18901427 -5.16823808 -0.89196237 0 0 Z " fill="#FBB47E" transform="translate(264,361)"/>
<path d="M0 0 C3.875 1.75 3.875 1.75 5 4 C5.93999213 13.16902688 3.81321352 21.93485642 1.8125 30.8125 C1.48879071 32.28885334 1.16604729 33.76541878 0.84423828 35.2421875 C-1.11464997 44.19283968 -3.14849542 53.12720392 -5.21655273 62.05322266 C-7.11644657 70.3231632 -8.76687078 78.64041953 -10.38916016 86.96875 C-10.6837915 88.47501953 -10.6837915 88.47501953 -10.984375 90.01171875 C-11.15678711 90.90334717 -11.32919922 91.79497559 -11.50683594 92.71362305 C-12 95 -12 95 -13 98 C-15.97 98 -18.94 98 -22 98 C-21.33996073 91.65917331 -20.05638565 85.62962075 -18.5625 79.4375 C-14.9775718 64.28272119 -11.79421936 49.04435508 -8.60375977 33.80249023 C-1.90234707 1.90234707 -1.90234707 1.90234707 0 0 Z " fill="#FAD5A6" transform="translate(251,251)"/>
<path d="M0 0 C4.98592875 4.17777765 9.66704284 8.53127277 14.24609375 13.1484375 C14.90207047 13.80582916 15.55804718 14.46322083 16.23390198 15.14053345 C18.30415268 17.21632862 20.37087651 19.29559427 22.4375 21.375 C23.85067862 22.7932008 25.26408794 24.21117176 26.67773438 25.62890625 C30.12116065 29.08328777 33.56143099 32.5407837 37 36 C35.41282827 39.33996139 34.35323576 41.23513907 31 43 C27.15596786 43.64067202 24.5992143 44.06499992 21.29199219 41.86254883 C14.65510445 35.80411395 8.32896676 29.43920876 2 23.0625 C0.83226626 21.88973991 -0.33570074 20.71721202 -1.50390625 19.54492188 C-4.33863234 16.69928311 -7.17018824 13.85052547 -10 11 C-9.05052441 9.88322508 -8.09975103 8.76755346 -7.1484375 7.65234375 C-6.35445557 6.72023071 -6.35445557 6.72023071 -5.54443359 5.76928711 C-3.78334607 3.7518035 -1.93011408 1.85587892 0 0 Z " fill="#FEB680" transform="translate(177,109)"/>
<path d="M0 0 C4.8887452 4.07064002 9.47950092 8.34280364 13.95703125 12.859375 C14.58606857 13.48982727 15.2151059 14.12027954 15.86320496 14.76983643 C17.84869041 16.76086263 19.83065061 18.75535514 21.8125 20.75 C23.16057379 22.10309726 24.50887906 23.45596394 25.85742188 24.80859375 C28.31368711 27.27299453 30.76869473 29.7386315 33.22192383 32.20605469 C34.81271295 33.80593084 36.40466089 35.40466089 38 37 C35.25400696 40.4546364 33.00777974 42.3802505 28.6875 43.1875 C22.34722392 43.37917483 18.97583877 39.79664005 14.51815796 35.60739136 C10.44361853 31.68136514 6.47186803 27.65435274 2.5 23.625 C1.28432351 22.39927391 0.06818139 21.17400945 -1.1484375 19.94921875 C-4.10435586 16.97144318 -7.05389464 13.98748324 -10 11 C-9.05052441 9.88322508 -8.09975103 8.76755346 -7.1484375 7.65234375 C-6.35445557 6.72023071 -6.35445557 6.72023071 -5.54443359 5.76928711 C-3.78334607 3.7518035 -1.93011408 1.85587892 0 0 Z " fill="#FBB37E" transform="translate(150,136)"/>
<path d="M0 0 C3.40766781 1.7038339 5.00535533 2.75912664 7.57519531 5.34814453 C8.25559875 6.02869904 8.9360022 6.70925354 9.63702393 7.41043091 C10.36008728 8.14381683 11.08315063 8.87720276 11.828125 9.6328125 C12.57713074 10.38464813 13.32613647 11.13648376 14.09783936 11.91110229 C16.4866302 14.31107901 18.86836897 16.71792009 21.25 19.125 C22.86933169 20.75436352 24.48911802 22.38327534 26.109375 24.01171875 C30.07820505 28.00258806 34.04126899 31.99911415 38 36 C33.67980692 41.61625101 33.67980692 41.61625101 30.1875 42.4140625 C26.3878673 42.78045565 23.87512843 42.63044375 20.71313477 40.35253906 C19.94283936 39.62260742 19.17254395 38.89267578 18.37890625 38.140625 C17.51023926 37.32352051 16.64157227 36.50641602 15.74658203 35.66455078 C14.84020996 34.78524902 13.93383789 33.90594727 13 33 C12.08976074 32.1219873 11.17952148 31.24397461 10.24169922 30.33935547 C7.4530036 27.62127215 4.69207339 24.87762944 1.9375 22.125 C0.97991047 21.17959354 0.02222853 20.23428066 -0.93554688 19.2890625 C-1.83466797 18.391875 -2.73378906 17.4946875 -3.66015625 16.5703125 C-4.47105713 15.76352051 -5.28195801 14.95672852 -6.11743164 14.12548828 C-8 12 -8 12 -9 9 C-6.03 6.03 -3.06 3.06 0 0 Z " fill="#FBB37E" transform="translate(123,163)"/>
<path d="M0 0 C15.84 0 31.68 0 48 0 C45.74294314 3.76176144 44.45545374 5.84878861 41.375 8.625 C40.76398438 9.19476563 40.15296875 9.76453125 39.5234375 10.3515625 C31.37458105 15.67480928 22.9009702 15.37628534 13.4375 15.1875 C11.49520508 15.16719727 11.49520508 15.16719727 9.51367188 15.14648438 C6.34226635 15.11137656 3.17107715 15.0575784 0 15 C0 10.05 0 5.1 0 0 Z " fill="#FDB580" transform="translate(182,383)"/>
<path d="M0 0 C3.3796609 0.28163841 4.77606002 0.79014745 7.28588867 3.14208984 C9.37029159 6.61738119 9.47604955 8.69454462 9.42578125 12.7265625 C9.41740234 14.0053125 9.40902344 15.2840625 9.40039062 16.6015625 C9.3711001 17.94270847 9.34180316 19.2838543 9.3125 20.625 C9.30099963 21.97394466 9.29121713 23.32290512 9.28320312 24.671875 C9.16912366 34.49262902 9.16912366 34.49262902 8 38 C6.13964844 37.6953125 6.13964844 37.6953125 4 37 C-1.12496387 29.83221836 -0.46733854 22.53471729 -0.25 14 C-0.22989985 12.63934927 -0.21165529 11.2786698 -0.1953125 9.91796875 C-0.1484085 6.611237 -0.08277725 3.30599584 0 0 Z " fill="#FBD7A7" transform="translate(300,362)"/>
<path d="M0 0 C2.99732524 0.33303614 4.79866962 0.85916326 7.28808594 2.60058594 C9.67939674 5.95224062 9.45553098 8.30154807 9.390625 12.390625 C9.38496521 13.09523865 9.37930542 13.79985229 9.37347412 14.52581787 C9.35115078 16.76791428 9.30096754 19.00838988 9.25 21.25 C9.22992952 22.77341435 9.2116797 24.29685386 9.1953125 25.8203125 C9.15130118 29.5473983 9.08230372 33.27354087 9 37 C7.68 37 6.36 37 5 37 C0.94429957 31.78552802 -0.12705976 28.08020771 -0.09765625 21.58203125 C-0.09443359 20.32841797 -0.09121094 19.07480469 -0.08789062 17.78320312 C-0.07951172 16.47287109 -0.07113281 15.16253906 -0.0625 13.8125 C-0.05748317 12.47721519 -0.05292059 11.14192859 -0.04882812 9.80664062 C-0.03702695 6.53771527 -0.02056297 3.26888009 0 0 Z " fill="#FDD8A8" transform="translate(262,362)"/>
<path d="M0 0 C0.12375 0.58007812 0.2475 1.16015625 0.375 1.7578125 C2.15367633 8.49454911 5.04800783 11.51562839 11 15 C12.32543166 15.68224125 13.65660508 16.35384808 15 17 C13.87720538 17.98169476 12.75168527 18.96027298 11.625 19.9375 C10.99851562 20.48277344 10.37203125 21.02804688 9.7265625 21.58984375 C7.5025181 23.4063144 6.17243359 23.97192941 3.3125 24.4375 C-0.74123675 23.90210081 -2.6281095 22.67582707 -5.5703125 19.91015625 C-8.10858246 16.51886113 -8.5276842 13.14715188 -8 9 C-3.33333333 0 -3.33333333 0 0 0 Z " fill="#F7B17C" transform="translate(302,208)"/>
<path d="M0 0 C0.22042969 0.88751953 0.22042969 0.88751953 0.4453125 1.79296875 C2.13839474 7.75767802 3.76466041 10.61242733 9 14 C12.21265916 15.32350658 12.21265916 15.32350658 15 16 C9.18181818 23.43434343 9.18181818 23.43434343 3.1875 24.5 C-1.44864052 23.77276227 -4.19700415 21.74498626 -7 18 C-8.13518439 14.90855124 -8.41547931 12.26531623 -8 9 C-3.33333333 0 -3.33333333 0 0 0 Z " fill="#F6B07C" transform="translate(350,213)"/>
<path d="M0 0 C1.31096013 1.96644019 2.60342478 3.94536548 3.875 5.9375 C7.73879969 11.5059172 10.2897046 13.45147029 17 15 C11.05052632 22.60210526 11.05052632 22.60210526 5.125 23.375 C0.56499357 22.82779923 -2.53459148 20.86506539 -5.375 17.25 C-6.35172 13.73380801 -6.79232397 10.55885515 -6 7 C-4.28466807 4.35220565 -2.28022162 2.17163964 0 0 Z " fill="#F9B27D" transform="translate(279,124)"/>
<path d="M0 0 C0.33 0 0.66 0 1 0 C1.2475 1.051875 1.495 2.10375 1.75 3.1875 C3.11709774 7.91976139 5.39232275 10.91481786 9.5 13.6875 C11.65457605 14.81865243 13.82175875 15.91549429 16 17 C13.26115888 19.9590052 10.72083461 22.59544263 6.70703125 23.5390625 C2.73926343 23.6852784 0.51557903 23.30715347 -2.9375 21.25 C-5.72583264 18.20818257 -6.76307488 16.30308815 -7.5 12.25 C-6.72884556 7.23749615 -3.54768186 3.54768186 0 0 Z " fill="#F8B17C" transform="translate(285,171)"/>
<path d="M0 0 C3.21524305 1.40844718 5.32183868 3.10344786 7.75 5.625 C8.67039063 6.57246094 8.67039063 6.57246094 9.609375 7.5390625 C10.06828125 8.02117187 10.5271875 8.50328125 11 9 C9.6095501 12.10442031 7.98428402 14.3656443 5.625 16.8125 C5.03976563 17.43769531 4.45453125 18.06289062 3.8515625 18.70703125 C2 20 2 20 0.0390625 19.953125 C-2.6205922 18.70991476 -4.22925693 17.05928023 -6.25 14.9375 C-6.95640625 14.20402344 -7.6628125 13.47054687 -8.390625 12.71484375 C-8.92171875 12.14894531 -9.4528125 11.58304688 -10 11 C-6.79239749 7.19364503 -3.59253891 3.45436433 0 0 Z " fill="#0A0907" transform="translate(145,99)"/>
<path d="M0 0 C4.31864357 3.57118603 7.43980387 6.54975483 11 11 C7.7 14.3 4.4 17.6 1 21 C-3.31864357 17.42881397 -6.43980387 14.45024517 -10 10 C-6.7 6.7 -3.4 3.4 0 0 Z " fill="#050403" transform="translate(92,152)"/>
<path d="M0 0 C4.31864357 3.57118603 7.43980387 6.54975483 11 11 C7.7 14.3 4.4 17.6 1 21 C-3.31864357 17.42881397 -6.43980387 14.45024517 -10 10 C-6.7 6.7 -3.4 3.4 0 0 Z " fill="#040403" transform="translate(416,125)"/>
<path d="M0 0 C4.31864357 3.57118603 7.43980387 6.54975483 11 11 C7.7 14.3 4.4 17.6 1 21 C-3.31864357 17.42881397 -6.43980387 14.45024517 -10 10 C-6.7 6.7 -3.4 3.4 0 0 Z " fill="#050403" transform="translate(363,72)"/>
<path d="M0 0 C3.21524305 1.40844718 5.32183868 3.10344786 7.75 5.625 C8.67039062 6.57246094 8.67039062 6.57246094 9.609375 7.5390625 C10.06828125 8.02117187 10.5271875 8.50328125 11 9 C9.59155282 12.21524305 7.89655214 14.32183868 5.375 16.75 C4.74335937 17.36359375 4.11171875 17.9771875 3.4609375 18.609375 C2.97882813 19.06828125 2.49671875 19.5271875 2 20 C-1.21524305 18.59155282 -3.32183868 16.89655214 -5.75 14.375 C-6.36359375 13.74335938 -6.9771875 13.11171875 -7.609375 12.4609375 C-8.06828125 11.97882813 -8.5271875 11.49671875 -9 11 C-7.59155282 7.78475695 -5.89655214 5.67816132 -3.375 3.25 C-2.74335937 2.63640625 -2.11171875 2.0228125 -1.4609375 1.390625 C-0.73777344 0.70226562 -0.73777344 0.70226562 0 0 Z " fill="#030302" transform="translate(118,126)"/>
<path d="M0 0 C3.21524305 1.40844718 5.32183868 3.10344786 7.75 5.625 C8.67039062 6.57246094 8.67039062 6.57246094 9.609375 7.5390625 C10.06828125 8.02117187 10.5271875 8.50328125 11 9 C9.59155282 12.21524305 7.89655214 14.32183868 5.375 16.75 C4.74335938 17.36359375 4.11171875 17.9771875 3.4609375 18.609375 C2.97882813 19.06828125 2.49671875 19.5271875 2 20 C-1.21524305 18.59155282 -3.32183868 16.89655214 -5.75 14.375 C-6.36359375 13.74335937 -6.9771875 13.11171875 -7.609375 12.4609375 C-8.06828125 11.97882813 -8.5271875 11.49671875 -9 11 C-7.59155282 7.78475695 -5.89655214 5.67816132 -3.375 3.25 C-2.74335938 2.63640625 -2.11171875 2.0228125 -1.4609375 1.390625 C-0.73777344 0.70226562 -0.73777344 0.70226562 0 0 Z " fill="#030302" transform="translate(389,99)"/>
</svg>
